HIERARCHY
ROOT Hips
{
	OFFSET -0.001795 -0.223333 0.028219
	CHANNELS 6 Xposition Yposition Zposition Zrotation Yrotation Xrotation 
	JOINT LeftUpLeg
	{
		OFFSET 0.069520 -0.091406 -0.006815
		CHANNELS 3 Zrotation Yrotation Xrotation
		JOINT LeftLeg
		{
			OFFSET 0.034277 -0.375199 -0.004496
			CHANNELS 3 Zrotation Yrotation Xrotation
			JOINT LeftFoot
			{
				OFFSET -0.013596 -0.397961 -0.043693
				CHANNELS 3 Zrotation Yrotation Xrotation
				JOINT LeftToe
				{
					OFFSET 0.026358 -0.055791 0.119288
					CHANNELS 3 Zrotation Yrotation Xrotation
					End Site
					{
						OFFSET 0.000000 0.000000 0.000000
					}
				}
			}
		}
	}
	JOINT RightUpLeg
	{
		OFFSET -0.067670 -0.090522 -0.004320
		CHANNELS 3 Zrotation Yrotation Xrotation
		JOINT RightLeg
		{
			OFFSET -0.038290 -0.382569 -0.008850
			CHANNELS 3 Zrotation Yrotation Xrotation
			JOINT RightFoot
			{
				OFFSET 0.015774 -0.398415 -0.042312
				CHANNELS 3 Zrotation Yrotation Xrotation
				JOINT RightToe
				{
					OFFSET -0.025372 -0.048144 0.123348
					CHANNELS 3 Zrotation Yrotation Xrotation
					End Site
					{
						OFFSET 0.000000 0.000000 0.000000
					}
				}
			}
		}
	}
	JOINT Spine
	{
		OFFSET -0.002533 0.108963 -0.026696
		CHANNELS 3 Zrotation Yrotation Xrotation
		JOINT Spine1
		{
			OFFSET 0.005487 0.135180 0.001092
			CHANNELS 3 Zrotation Yrotation Xrotation
			JOINT Spine2
			{
				OFFSET 0.001457 0.052922 0.025425
				CHANNELS 3 Zrotation Yrotation Xrotation
				JOINT Neck
				{
					OFFSET -0.002778 0.213870 -0.042857
					CHANNELS 3 Zrotation Yrotation Xrotation
					JOINT Head
					{
						OFFSET 0.005152 0.064970 0.051349
						CHANNELS 3 Zrotation Yrotation Xrotation
						End Site
						{
							OFFSET 0.000000 0.000000 0.000000
						}
					}
				}
				JOINT LeftShoulder
				{
					OFFSET 0.078845 0.121749 -0.034090
					CHANNELS 3 Zrotation Yrotation Xrotation
					JOINT LeftArm
					{
						OFFSET 0.090977 0.030469 -0.008868
						CHANNELS 3 Zrotation Yrotation Xrotation
						JOINT LeftForeArm
						{
							OFFSET 0.259612 -0.012772 -0.027456
							CHANNELS 3 Zrotation Yrotation Xrotation
							JOINT LeftHand
							{
								OFFSET 0.249234 0.008986 -0.001171
								CHANNELS 3 Zrotation Yrotation Xrotation
								End Site
								{
									OFFSET 0.000000 0.000000 0.000000
								}
							}
						}
					}
				}
				JOINT RightShoulder
				{
					OFFSET -0.081759 0.118833 -0.038615
					CHANNELS 3 Zrotation Yrotation Xrotation
					JOINT RightArm
					{
						OFFSET -0.096012 0.032551 -0.009143
						CHANNELS 3 Zrotation Yrotation Xrotation
						JOINT RightForeArm
						{
							OFFSET -0.253742 -0.013329 -0.021401
							CHANNELS 3 Zrotation Yrotation Xrotation
							JOINT RightHand
							{
								OFFSET -0.255298 0.007772 -0.005559
								CHANNELS 3 Zrotation Yrotation Xrotation
								End Site
								{
									OFFSET 0.000000 0.000000 0.000000
								}
							}
						}
					}
				}
			}
		}
	}
}
MOTION
Frames: 12
Frame Time: 0.050000
0.000000 0.945739 0.000000 -1.423085 3.045121 6.897908 5.041189 -0.348043 -3.657709 1.170350 0.060826 -4.089481 21.036592 29.436175 45.248589 0.000000 0.000000 0.000000 -3.935068 0.554475 -6.327185 0.207738 0.041150 1.782543 -3.726508 -15.861588 52.501983 0.000000 0.000000 0.000000 2.293966 0.129768 -3.494914 -0.395531 0.236222 -1.742214 -1.711159 -0.036553 1.110681 0.596402 0.096636 -5.754548 0.000000 0.000000 0.000000 -18.700192 3.915442 -4.423827 -50.796150 -4.737118 -3.619380 -13.697762 -20.290667 3.079602 0.000000 0.000000 0.000000 17.375815 -6.381515 -4.631883 56.838422 3.805219 -3.310340 9.699781 19.927111 2.224162 0.000000 0.000000 0.000000 
-0.000053 0.944949 0.001277 -1.538752 2.143494 7.249168 4.344429 -0.324438 -3.331586 2.477082 0.014752 -4.877901 21.613344 29.737762 45.856490 0.000000 0.000000 0.000000 -4.106618 0.571984 -6.485863 0.551434 -0.017264 1.254994 -3.468520 -15.737159 52.084342 0.000000 0.000000 0.000000 2.850004 0.145788 -3.787865 -1.300960 0.643076 -1.914860 -1.310594 0.152081 0.596052 -1.320284 1.433142 -5.761013 0.000000 0.000000 0.000000 -19.609065 5.851185 -5.528774 -49.840993 -4.074037 -3.775277 -14.897531 -20.558138 3.352136 0.000000 0.000000 0.000000 16.499373 -6.879685 -4.848774 57.995471 2.675756 -3.842872 9.670947 21.063024 2.338105 0.000000 0.000000 0.000000 
-0.000119 0.944721 0.002157 -1.008912 2.954797 7.269812 3.941119 -0.325004 -3.299267 2.322435 0.039537 -5.125906 21.044814 29.426323 45.296830 0.000000 0.000000 0.000000 -4.429709 0.556144 -6.467491 0.274809 0.026644 1.603090 -3.884937 -15.986433 52.206504 0.000000 0.000000 0.000000 2.370352 0.133332 -3.614353 -0.918517 0.507720 -3.186538 -1.925039 -0.647295 1.067858 -1.650731 1.599679 -4.711751 0.000000 0.000000 0.000000 -19.045693 5.100359 -4.972064 -50.289810 -3.413553 -4.132668 -14.435434 -19.960709 3.182830 0.000000 0.000000 0.000000 17.903879 -6.221845 -4.755959 56.691709 2.056954 -4.115326 9.191489 21.133629 2.264406 0.000000 0.000000 0.000000 
-0.000228 0.944592 0.002876 -1.162772 2.713468 7.634290 3.822694 -0.352510 -3.760728 2.811458 -0.004054 -4.856886 21.228076 29.530326 45.516432 0.000000 0.000000 0.000000 -4.399951 0.607182 -7.193062 0.478046 0.020926 2.170218 -3.781600 -15.934398 52.220366 0.000000 0.000000 0.000000 2.403236 0.138119 -3.731357 -1.596972 0.794800 -2.928732 -0.854772 -1.569897 -0.077814 -2.847783 2.390379 -4.355598 0.000000 0.000000 0.000000 -18.891181 6.655839 -5.500498 -51.160735 -3.419957 -4.144291 -14.151743 -19.816262 3.157236 0.000000 0.000000 0.000000 16.742200 -6.418740 -4.958612 57.001880 2.170687 -3.954027 10.236262 20.729815 2.312773 0.000000 0.000000 0.000000 
-0.000410 0.944755 0.003372 -0.905766 3.276335 7.510444 3.527089 -0.332118 -3.416761 2.959706 0.017079 -5.347281 20.765990 29.245155 45.210032 0.000000 0.000000 0.000000 -4.630646 0.578863 -6.942754 0.537284 0.013716 2.229252 -3.996606 -16.049172 52.394469 0.000000 0.000000 0.000000 1.977898 0.140673 -3.771273 -1.113463 0.586481 -2.855790 -1.074674 -2.026300 -0.031835 -3.331331 2.743750 -4.551218 0.000000 0.000000 0.000000 -19.019001 6.462332 -5.401152 -51.184204 -3.402564 -4.162216 -14.232535 -19.630857 3.144803 0.000000 0.000000 0.000000 16.519025 -6.310476 -4.880748 57.129337 2.660544 -3.738226 10.247411 20.067669 2.227932 0.000000 0.000000 0.000000 
-0.000566 0.945042 0.003611 -0.786574 3.127061 7.613075 3.317893 -0.331959 -3.445444 3.086712 0.013639 -5.413863 20.756980 29.202303 45.412891 0.000000 0.000000 0.000000 -4.760990 0.586874 -7.109571 0.523453 0.018768 2.319069 -3.928224 -16.011253 52.399073 0.000000 0.000000 0.000000 1.661892 0.145346 -3.846842 -1.120620 0.590475 -2.932108 -0.729724 -2.250733 -0.135306 -3.641862 2.945085 -4.146093 0.000000 0.000000 0.000000 -19.042830 7.073300 -5.648090 -51.603448 -3.393706 -4.203960 -13.804664 -19.411377 3.050809 0.000000 0.000000 0.000000 16.084308 -6.006248 -4.725518 57.362498 3.158249 -3.510798 9.965376 19.355273 2.078942 0.000000 0.000000 0.000000 
-0.000779 0.945154 0.003563 -0.801340 3.086582 7.610632 3.243279 -0.333605 -3.485576 3.264028 -0.001106 -5.333191 20.751761 29.187176 45.482014 0.000000 0.000000 0.000000 -4.672808 0.592280 -7.153806 0.412894 0.035269 2.380337 -3.906461 -15.999379 52.403099 0.000000 0.000000 0.000000 1.524605 0.142194 -3.777287 -1.010849 0.539257 -2.809047 -0.674744 -2.436278 -0.254623 -3.504972 2.848134 -4.519841 0.000000 0.000000 0.000000 -18.863436 7.101717 -5.586495 -51.751217 -3.271730 -4.262441 -13.791361 -19.338932 3.044868 0.000000 0.000000 0.000000 16.048002 -5.681317 -4.600802 57.455569 3.452556 -3.365511 9.593899 19.029105 1.974445 0.000000 0.000000 0.000000 
-0.000969 0.945422 0.003339 -0.900087 2.815183 7.732654 3.147841 -0.341050 -3.617964 3.595275 -0.023721 -5.280113 20.861962 29.218775 45.756328 0.000000 0.000000 0.000000 -4.584304 0.611398 -7.364035 0.408007 0.036796 2.385493 -3.767447 -15.919332 52.392953 0.000000 0.000000 0.000000 1.522793 0.141530 -3.760023 -1.074882 0.562841 -2.711818 -0.544500 -2.282142 -0.481581 -3.574245 2.880320 -3.965728 0.000000 0.000000 0.000000 -18.824035 7.150567 -5.605573 -51.796603 -3.433938 -4.176088 -13.607424 -19.420998 3.025688 0.000000 0.000000 0.000000 16.060135 -5.588089 -4.566231 57.468176 3.828189 -3.161325 9.424922 18.489384 1.884346 0.000000 0.000000 0.000000 
-0.001127 0.945868 0.003078 -1.026324 2.690161 7.793396 3.187928 -0.347809 -3.722409 3.762794 -0.037985 -5.213366 20.876783 29.197189 45.946544 0.000000 0.000000 0.000000 -4.456137 0.628449 -7.553040 0.416920 0.040070 2.508027 -3.649648 -15.844227 52.482886 0.000000 0.000000 0.000000 1.515555 0.136936 -3.667705 -1.025279 0.540404 -2.723945 -0.469763 -2.257760 -0.562486 -3.552084 2.858218 -3.829921 0.000000 0.000000 0.000000 -18.515121 7.112432 -5.519259 -52.092540 -3.814863 -4.030825 -13.663512 -19.214665 3.003389 0.000000 0.000000 0.000000 16.053809 -5.584074 -4.576226 57.411186 4.144769 -2.997214 9.232766 18.219080 1.823561 0.000000 0.000000 0.000000 
-0.001273 0.946318 0.002870 -1.083367 2.496702 7.917545 3.092560 -0.353535 -3.818346 4.020798 -0.050922 -5.251271 20.900805 29.169034 46.207089 0.000000 0.000000 0.000000 -4.413365 0.646858 -7.785398 0.425144 0.041863 2.578507 -3.522364 -15.768322 52.545239 0.000000 0.000000 0.000000 1.492894 0.141773 -3.761035 -1.065213 0.554240 -2.628538 -0.387135 -2.181841 -0.566089 -3.742335 2.991891 -3.709918 0.000000 0.000000 0.000000 -18.437205 7.106039 -5.492150 -52.045763 -4.125891 -3.893752 -13.948080 -19.294599 3.067180 0.000000 0.000000 0.000000 16.123509 -5.482430 -4.547529 57.200565 4.477429 -2.823745 9.168922 18.029052 1.791775 0.000000 0.000000 0.000000 
-0.001389 0.946769 0.002736 -1.097132 2.326113 7.978035 3.135115 -0.354281 -3.831384 3.949597 -0.043713 -5.309894 20.924515 29.147882 46.421541 0.000000 0.000000 0.000000 -4.450642 0.653836 -7.882843 0.494628 0.032499 2.555004 -3.403810 -15.695228 52.594121 0.000000 0.000000 0.000000 1.433774 0.140251 -3.725637 -1.068222 0.557819 -2.770138 -0.409805 -2.184124 -0.405410 -3.713782 2.968265 -3.555374 0.000000 0.000000 0.000000 -18.548212 7.193765 -5.535920 -51.895452 -4.343899 -3.805883 -13.968683 -19.546007 3.119490 0.000000 0.000000 0.000000 16.233480 -5.485184 -4.582833 57.158722 4.765633 -2.696941 9.173645 17.849615 1.769933 0.000000 0.000000 0.000000 
-0.001479 0.947067 0.002670 -1.134717 2.191422 8.066649 3.164596 -0.358749 -3.898252 3.954312 -0.043098 -5.330056 20.955600 29.141439 46.583650 0.000000 0.000000 0.000000 -4.427384 0.657473 -7.887934 0.506555 0.024007 2.332380 -3.318759 -15.642922 52.609304 0.000000 0.000000 0.000000 1.428069 0.146178 -3.840789 -1.094451 0.565362 -2.636870 -0.432514 -2.103143 -0.448651 -3.691772 2.953309 -3.657390 0.000000 0.000000 0.000000 -18.489652 7.118820 -5.490475 -51.699274 -4.630929 -3.664301 -14.291331 -19.460343 3.159668 0.000000 0.000000 0.000000 16.273282 -5.601320 -4.646021 57.042607 4.853664 -2.643324 9.347889 17.907661 1.800525 0.000000 0.000000 0.000000 
